<?xml version="1.0" encoding="utf-8"?>
<!-- Generator: Adobe Illustrator 27.9.6, SVG Export Plug-In . SVG Version: 9.03 Build 54986)  -->
<svg version="1.1" id="background" xmlns="http://www.w3.org/2000/svg" xmlns:xlink="http://www.w3.org/1999/xlink" x="0px" y="0px"
	 viewBox="0 0 450 450" style="enable-background:new 0 0 450 450;" xml:space="preserve">
<style type="text/css">
	.st0{fill:#920A25;}
	.st1{fill:#FFFFFF;}
	.st2{fill:#AE8D73;}
	.st3{fill:#AE8D73;stroke:#000000;stroke-miterlimit:10;}
	.st4{fill:#F2CD97;}
	.st5{fill:#95ACBC;}
	.st6{fill:#9A061E;}
</style>
<rect class="st0" width="450" height="450"/>
<g id="Layer_3">
	<g>
		<g>
			<path class="st1" d="M178.49,69.21c0,0-1-62.98,82.5,23.01c0,0,8.5-52,50-17.51c0,0,16.5-0.5,21.5,15.5c0,0,18-4,24,16
				c0,0,22-11,10,34c0,0,20-4,23,6c0,0,4,24-13.4,29.2l-19.94,6.5c0,0,12.34,22.3-7.66,28.3c-12.18,3.65-52,20-52,20s33,16,34,16
				s12.37-6.92,20.19,3.04c7.81,9.96-2.19,30.96-2.19,30.96s-9,19.27-37.5,32.13c0,0,28.5,16.87,27.5,29.87s-3,14-12,22
				c0,0,9,2,8,12s-1,15.76-11.5,17.88h-33.06c0,0-9.44,0.12-13.44-3.88c0,0,3,17-12,16l-21.5,0.04c0,0-9.5-0.61-12-3.83
				c0,0-9.5,6.87-22,3.83s-24-1.45-24-1.45s-14.79-1.6-10.14-24.1c0,0-16.01,2.65-14.68-12.43c0,0-18.67,24.93-34.67,10.93
				s-42.81-30.33-30.4-44.66c12.4-14.34,38.49,10.52,38.49,10.52l41.91-41.86c0,0-19-9.27-30-32.13l-58,26.13c0,0-28,19-31-26
				l-10-113c0,0-7-32,39-8c0,0,0-7,7-7c0,0,0-7,9-9l23-22c0,0,5-5,7,3c0,0-5-18.65,14-20.33c0,0,2-16.67,21-9.67
				C166.49,85.21,162.49,72.21,178.49,69.21z"/>
		</g>
		<g>
			<g>
				<path class="st2" d="M340.99,199.71c1.87,2.35,4.26,3.58,6.21,3c0.14-0.04,0.72-0.26,1.37-0.77c1.84-1.45,2.49-3.94,1.88-6.2
					c-11.2-41.65-52.15-72.53-100.96-72.53c-57.44,0-104,42.76-104,95.5c0,52.74,46.56,95.5,104,95.5
					c39.84,0,74.44-20.57,91.9-50.77c0.6-1.03,0.37-4.65-1.4-5.73c-2.64-1.59-8.04,3.14-9,4c-21.67-11-43.33-22-65-33"/>
				<path d="M249.49,314.71c-57.62,0-104.5-43.07-104.5-96s46.88-96,104.5-96c48.19,0,89.9,29.98,101.45,72.9
					c0.69,2.57-0.12,5.21-2.06,6.73c-0.65,0.51-1.27,0.78-1.54,0.85c-2.11,0.62-4.69-0.59-6.74-3.17l0.78-0.62
					c1.77,2.22,4,3.33,5.68,2.83c0.15-0.04,0.66-0.25,1.21-0.68c1.62-1.27,2.29-3.5,1.71-5.68
					c-11.43-42.49-52.74-72.16-100.48-72.16c-57.07,0-103.5,42.62-103.5,95c0,52.38,46.43,95,103.5,95
					c38.4,0,73.45-19.36,91.47-50.52c0.48-0.82,0.28-4.14-1.23-5.05c-1.75-1.06-5.49,1.34-8.41,3.95l-0.25,0.23l-65.3-33.15
					l0.45-0.89l64.7,32.85c2.12-1.85,6.73-5.4,9.33-3.83c2.02,1.22,2.31,5.14,1.58,6.41C323.63,295.16,288.25,314.71,249.49,314.71z
					"/>
			</g>
			<g>
				<path class="st3" d="M358.12,198.22"/>
			</g>
		</g>
		<g>
			<g>
				<path class="st4" d="M341.81,200.57c-9.08-39.06-46.87-68.36-92.12-68.36c-52.02,0-94.2,38.73-94.2,86.5s42.17,86.5,94.2,86.5
					c35.18,0,65.85-17.71,82.02-43.94l-56.72-30.42L341.81,200.57z"/>
				<path d="M249.69,305.71c-52.22,0-94.7-39.03-94.7-87c0-47.97,42.48-87,94.7-87c21.8,0,43.08,6.97,59.92,19.63
					c16.62,12.49,28.22,29.93,32.68,49.11l0.09,0.4l-66.27,30.03l56.3,30.19l-0.28,0.45C315.34,288.78,283.74,305.71,249.69,305.71z
					 M249.69,132.71c-51.67,0-93.7,38.58-93.7,86c0,47.42,42.03,86,93.7,86c33.52,0,64.62-16.56,81.32-43.26l-57.14-30.65l0.92-0.42
					l66.44-30.11C331.91,161.1,293.48,132.71,249.69,132.71z"/>
			</g>
		</g>
		<g>
			<path class="st5" d="M261.31,123.83c0.33,0.02-27.46-54.48-65.53-62.48c-1.62-0.34-2.98,1.24-2.38,2.79
				c3.65,9.39,13.1,36.93,11.98,68.08C205.37,132.21,230.62,121.95,261.31,123.83z"/>
			<path d="M204.85,132.97l0.03-0.77c1.1-30.7-7.99-57.7-11.95-67.88c-0.35-0.9-0.19-1.87,0.44-2.6c0.63-0.74,1.57-1.06,2.52-0.86
				c38.45,8.08,65.99,62.56,65.93,63.04l-0.06,0.46l-0.47-0.03c-30.21-1.86-55.46,8.25-55.71,8.35L204.85,132.97z M195.33,61.8
				c-0.46,0-0.9,0.2-1.21,0.56c-0.38,0.45-0.48,1.04-0.27,1.59c3.95,10.15,12.97,36.95,12.04,67.52c4.29-1.61,27.37-9.68,54.62-8.19
				c-1.5-3-8.23-15.3-18.53-28.07c-10.47-12.98-27.01-29.31-46.32-33.37C195.56,61.81,195.44,61.8,195.33,61.8z"/>
		</g>
		<g>
			<path class="st5" d="M148.64,195.32l-85.39-38.67c-1.89-0.85-3.99,0.66-3.77,2.72l13.13,124.76c0.19,1.79,2.05,2.89,3.7,2.19
				l76.6-32.11C152.92,254.21,142.29,230.92,148.64,195.32z"/>
			<path d="M75.28,287.03c-0.56,0-1.11-0.15-1.62-0.45c-0.87-0.52-1.44-1.39-1.54-2.4L58.98,159.42c-0.12-1.15,0.37-2.24,1.3-2.91
				c0.94-0.67,2.12-0.79,3.17-0.32l85.74,38.84l-0.07,0.38c-6.25,35.05,4.13,58.37,4.24,58.6l0.21,0.47l-77.08,32.31
				C76.11,286.95,75.69,287.03,75.28,287.03z M62.14,156.9c-0.45,0-0.89,0.14-1.27,0.42c-0.64,0.46-0.98,1.21-0.89,2l13.13,124.76
				c0.07,0.69,0.46,1.29,1.06,1.65c0.6,0.35,1.31,0.4,1.95,0.13l76.14-31.91c-1.44-3.49-9.86-25.94-4.18-58.33L63.05,157.1
				C62.76,156.97,62.45,156.9,62.14,156.9z"/>
		</g>
		<g>
			<path d="M322.61,381.71h-30.87c-1.03,0-1.95-0.62-2.34-1.57c-0.39-0.96-0.16-2.04,0.58-2.76l32.37-31.52
				c0.54-0.52,0.82-1.25,0.78-1.99c-0.04-0.74-0.4-1.43-0.99-1.88c-5.09-3.93-15.27-11.82-24.18-18.75
				c-4.46-3.47-8.59-6.69-11.61-9.07c-5.41-4.25-5.41-4.25-5.27-4.93l0.98,0.19l0.74-0.67c0.94,0.93,21.58,16.95,40.57,31.64
				c1.05,0.81,1.69,2.03,1.76,3.35c0.08,1.32-0.43,2.61-1.38,3.54l-32.37,31.52c-0.23,0.22-0.16,0.47-0.12,0.57s0.17,0.32,0.48,0.32
				h30.87V381.71z"/>
		</g>
		<g>
			<path d="M137.53,369.28c-1.03,0-2.06-0.34-2.9-1.04l-29.31-24.09l1.27-1.54l29.31,24.09c1.08,0.89,2.7,0.75,3.61-0.33
				l56.07-66.21l1.53,1.29l-56.07,66.21C140.14,368.73,138.84,369.28,137.53,369.28z"/>
		</g>
		<g>
			<circle class="st1" cx="260.49" cy="195.21" r="19.5"/>
			<path d="M260.49,215.21c-11.03,0-20-8.97-20-20s8.97-20,20-20c11.03,0,20,8.97,20,20S271.52,215.21,260.49,215.21z
				 M260.49,176.21c-10.48,0-19,8.52-19,19s8.52,19,19,19c10.48,0,19-8.52,19-19S270.97,176.21,260.49,176.21z"/>
		</g>
		<g>
			<circle cx="260.99" cy="195.71" r="14"/>
		</g>
		<g>
			<circle class="st6" cx="281.99" cy="274.71" r="12"/>
			<path d="M281.99,287.21c-6.89,0-12.5-5.61-12.5-12.5s5.61-12.5,12.5-12.5s12.5,5.61,12.5,12.5S288.88,287.21,281.99,287.21z
				 M281.99,263.21c-6.34,0-11.5,5.16-11.5,11.5s5.16,11.5,11.5,11.5s11.5-5.16,11.5-11.5S288.33,263.21,281.99,263.21z"/>
		</g>
		<g>
			<circle class="st6" cx="230.99" cy="286.71" r="12"/>
			<path d="M230.99,299.21c-6.89,0-12.5-5.61-12.5-12.5s5.61-12.5,12.5-12.5s12.5,5.61,12.5,12.5S237.88,299.21,230.99,299.21z
				 M230.99,275.21c-6.34,0-11.5,5.16-11.5,11.5s5.16,11.5,11.5,11.5s11.5-5.16,11.5-11.5S237.33,275.21,230.99,275.21z"/>
		</g>
		<g>
			<circle class="st6" cx="222.99" cy="226.71" r="12"/>
			<path d="M222.99,239.21c-6.89,0-12.5-5.61-12.5-12.5s5.61-12.5,12.5-12.5s12.5,5.61,12.5,12.5S229.88,239.21,222.99,239.21z
				 M222.99,215.21c-6.34,0-11.5,5.16-11.5,11.5c0,6.34,5.16,11.5,11.5,11.5s11.5-5.16,11.5-11.5
				C234.49,220.37,229.33,215.21,222.99,215.21z"/>
		</g>
		<g>
			<circle class="st6" cx="196.99" cy="175.71" r="12"/>
			<path d="M196.99,188.21c-6.89,0-12.5-5.61-12.5-12.5s5.61-12.5,12.5-12.5s12.5,5.61,12.5,12.5S203.88,188.21,196.99,188.21z
				 M196.99,164.21c-6.34,0-11.5,5.16-11.5,11.5s5.16,11.5,11.5,11.5s11.5-5.16,11.5-11.5S203.33,164.21,196.99,164.21z"/>
		</g>
		<g>
			<circle class="st6" cx="310.99" cy="175.71" r="12"/>
			<path d="M310.99,188.21c-6.89,0-12.5-5.61-12.5-12.5s5.61-12.5,12.5-12.5s12.5,5.61,12.5,12.5S317.88,188.21,310.99,188.21z
				 M310.99,164.21c-6.34,0-11.5,5.16-11.5,11.5s5.16,11.5,11.5,11.5s11.5-5.16,11.5-11.5S317.33,164.21,310.99,164.21z"/>
		</g>
		<g>
			<circle class="st6" cx="184.99" cy="190.71" r="12"/>
			<path d="M184.99,203.21c-6.89,0-12.5-5.61-12.5-12.5s5.61-12.5,12.5-12.5s12.5,5.61,12.5,12.5S191.88,203.21,184.99,203.21z
				 M184.99,179.21c-6.34,0-11.5,5.16-11.5,11.5s5.16,11.5,11.5,11.5s11.5-5.16,11.5-11.5S191.33,179.21,184.99,179.21z"/>
		</g>
		<g>
			<path d="M116.04,136.64c1.48,0.89,2,1.83,1.66,2.78l-9.47,16.25l10.06,5.44l11.13-18.5c0.95-1.06,2.12-1.2,3.54-0.35
				c1.42,0.86,1.95,1.79,1.51,2.77l-11.27,18.73l17.11,9.45c0.8,0.48,0.75,1.46-0.03,3.01l-0.65,1.08
				c-0.25,0.93-0.99,1.26-2.04,0.94l-35.29-19.3c-0.3-0.02-0.49-0.22-0.65-0.47c-0.1-0.22-0.2-0.43-0.29-0.8
				c-0.05-0.18-0.08-0.51-0.06-0.81c0.05-0.21,0.09-0.41,0.16-0.52l1.75-2.9c1.68-2.4,4.83-7.64,9.49-15.77
				C113.4,136.52,114.53,136.19,116.04,136.64z"/>
		</g>
		<g>
			<path d="M135.39,123.32c0.69,0.63,1.19,1.35,1.56,2.14c0.52,1.01,0.24,2.01-0.79,3.14c-0.71,0.79-1.55,1.02-2.69,0.69
				c-1.1-0.28-1.87-0.71-2.28-1.35c-0.49-0.45-0.85-1.13-1.04-2.02c-0.13-0.84,0.02-1.51,0.47-2
				C132,122.4,133.59,122.23,135.39,123.32z M159.1,145.84c0.55,0.58,0.67,1.14,0.51,1.72c-0.16,0.67-0.46,1.2-0.91,1.6
				c-0.4,0.44-0.91,0.7-1.37,0.82c-0.51,0.26-0.88,0.18-1.18-0.08l-16.78-15.42c-0.49-0.45-0.71-1-0.55-1.67
				c0.16-0.57,0.46-1.1,0.91-1.6c0.45-0.4,0.95-0.75,1.51-0.97c0.6-0.17,1.08-0.1,1.42,0.21L159.1,145.84z"/>
		</g>
		<g>
			<path d="M172.06,124c1.46,1.56,2.16,3.04,2.12,4.45c0,1.46-0.41,2.84-1.24,4.13c-0.84,1.38-1.91,2.7-3.3,3.93
				c-1.4,1.33-2.84,2.51-4.22,3.66c-0.62,0.51-1.25,0.78-1.96,0.76c-0.71,0.07-1.26-0.17-1.72-0.73c-0.42-0.51-0.61-1.05-0.55-1.61
				c0.04-0.47,0.32-0.87,0.83-1.29c-0.1,0.08,0.14-0.03,0.56-0.37c0.45-0.29,0.96-0.71,1.68-1.3c0.61-0.51,1.33-1.1,2.07-1.88
				c0.68-0.64,1.31-1.34,1.86-2.14c0.54-0.7,0.89-1.42,1.11-2.21c0.16-0.65,0.03-1.32-0.43-1.88c-0.34-0.41-0.74-0.68-1.24-0.87
				c-0.51-0.1-1.03-0.1-1.59-0.15c-0.57,0.04-1.14,0.08-1.72,0.21c-0.63,0.18-1.21,0.31-1.74,0.4c-3.31,1.01-6.17,1.3-8.39,0.9
				c-2.29-0.27-4.08-1.29-5.43-2.93c-1.69-2.05-2.24-4.18-1.6-6.43c0.59-2.21,2.06-4.29,4.37-6.19c0.31-0.25,0.91-0.67,1.72-1.16
				c0.79-0.4,1.63-0.74,2.51-1.13c0.92-0.24,1.79-0.44,2.6-0.51c0.85-0.01,1.48,0.33,1.9,0.84c0.66,1.01,0.82,1.82,0.33,2.49
				c-0.45,0.71-1.2,1.16-2.2,1.3c-1.74,0.4-3.26,1.06-4.54,2.11c-0.41,0.34-0.73,0.69-1.05,1.13c-0.33,0.44-0.56,0.89-0.7,1.35
				c-0.19,0.5-0.23,0.97-0.19,1.45c0,0.52,0.19,0.96,0.53,1.37c1.23,1.49,2.97,2.03,5.32,1.64c1.06-0.18,2.11-0.36,3.08-0.65
				c1-0.14,1.97-0.33,2.94-0.62C167.58,121.49,170.35,122.14,172.06,124z"/>
		</g>
		<g>
			<path d="M201.14,114.47c0.43,1.12,0.51,1.98,0.22,2.58c-0.38,0.72-0.9,1.14-1.67,1.39c-0.62,0.25-1.07,0.25-1.49,0.02
				c-0.39-0.17-0.75-0.58-1.12-1.29c-0.73-1.42-1.38-2.8-1.9-4.1c-0.61-1.18-1.17-2.39-1.75-3.51l-1.83-3.09
				c-0.61-0.88-1.3-1.79-2.09-2.73c-0.94-1.09-1.99-1.66-3.12-1.83c-1.19,0.02-2.52,0.34-4,1.1c-0.59,0.31-1.21,0.7-1.74,1.13
				c-0.56,0.51-1.06,1-1.46,1.51c-0.44,0.6-0.76,1.14-1.04,1.74c-0.29,0.6-0.49,1.23-0.54,1.7l8.1,14.88
				c0.37,0.71,0.41,1.36,0.09,1.9c-0.35,0.63-0.85,1.11-1.49,1.45c-0.59,0.31-1.12,0.43-1.75,0.38c-0.59,0.01-0.98-0.16-1.23-0.64
				l-17.47-31.5c-0.67-1-0.83-1.89-0.58-2.7c0.23-0.72,0.69-1.26,1.31-1.65c0.59-0.31,1.21-0.4,1.93-0.33
				c0.69,0.17,1.26,0.55,1.68,1.22l6.66,12.26c0.61-1.14,1.45-2.25,2.42-3.28c0.94-0.94,2.02-1.72,3.14-2.45
				c1.06-0.55,2.15-1.04,3.31-1.42c1.13-0.28,2.28-0.36,3.44-0.29c1.13,0.16,2.21,0.5,3.31,1.05c1.08,0.64,2.1,1.45,3.01,2.63
				c1.15,1.5,2.37,3.41,3.71,5.71C198.44,108.68,199.79,111.43,201.14,114.47z"/>
		</g>
		<g>
			<path d="M296.02,109.7c-0.89,2.65-2.5,4.64-4.8,5.83c-2.39,1.3-5.54,1.52-9.43,0.65c-4.05-1.05-6.93-2.13-8.69-3.27
				c-0.88-0.57-1.64-1.11-2.2-1.6c-0.64-0.44-1.14-0.91-1.46-1.27c-1.02-0.81-1.52-1.83-1.35-3.02c0.2-0.77,0.64-1.41,1.32-1.92
				c0.6-0.46,1.23-0.51,1.9-0.2c1.6,2.06,5.3,4.18,11.18,6.39c3.7,0.82,6.45-0.26,8.31-3.21c0.71-1.94,0.03-4.11-2.05-6.43
				c-0.59-0.63-1.33-1.51-2.2-2.63c-0.96-1.07-2.14-2.34-3.39-3.89c-0.99-1.22-1.78-2.66-2.3-4.37c-0.82-1.86-0.9-3.94-0.32-6.19
				c1.92-6.09,6.11-8.51,12.56-7.19c4.63,1.2,7.95,3.22,9.98,6.01c0.38,0.65,0.68,1.34,0.97,2.1c0.2,0.81,0.13,1.34-0.08,1.63
				c-0.56,1.09-1.35,1.5-2.44,1.22c-0.58-0.15-1.12-0.43-1.6-0.96c-2.27-2.37-4.93-4.02-7.86-4.91c-2.06-0.53-3.48-0.35-4.37,0.45
				c-0.89,0.52-1.62,1.5-2.13,2.95c-0.22,0.84-0.19,1.8,0.2,2.93c0.31,1.18,0.76,2.12,1.27,2.8c0.45,0.66,1.13,1.46,2,2.37
				c0.77,1.02,1.77,2.17,2.95,3.44c1.66,1.53,2.97,3.37,3.92,5.54C296.73,105.35,296.77,107.56,296.02,109.7z"/>
		</g>
		<g>
			<path d="M320.35,128.91c-0.47,1.18-1.13,1.73-2.02,1.72c-0.95,0.1-2.02-0.01-3.2-0.32c-1.3-0.23-2.55-0.58-3.73-1.05
				c-1.12-0.44-2.15-0.9-3.07-1.45c-0.94-0.49-1.64-1.16-2.17-1.88c-0.61-0.69-0.98-1.56-1.14-2.55c-0.22-1.01-0.14-2.17,0.18-3.5
				c0.26-1.07,0.61-2.31,1.13-3.61c0.44-1.27,0.97-2.57,1.58-3.89c0.53-1.3,1.17-2.53,1.82-3.77l1.72-3.3
				c-0.59-0.31-1.24-0.65-1.94-1.16c-0.82-0.43-1.74-0.98-2.79-1.68c-0.85-0.67-0.95-1.62-0.25-2.83c0.13-0.53,0.46-0.88,1-1.2
				c0.45-0.29,1.05-0.28,1.7-0.09c0.47,0.39,1.14,0.82,1.94,1.31c0.7,0.52,1.65,1.01,2.77,1.59c0.55-1.06,1.17-2.09,1.78-2.97
				c0.52-0.85,1.07-1.62,1.62-2.38c0.92-1.47,2.03-2.01,3.36-1.55c0.62,0.25,1.06,0.7,1.31,1.36c0.17,0.69,0.16,1.28-0.03,1.93
				c-0.55,0.76-1.04,1.56-1.59,2.47c-0.61,0.88-1.34,2-2.05,3.35c0.26,0.21,0.7,0.52,1.29,0.83c0.5,0.34,1.09,0.64,1.8,1.01
				c0.62,0.4,1.32,0.77,2.03,1.14c0.65,0.34,1.3,0.68,1.92,0.93c1.12,0.44,1.4,1.33,0.96,2.6c-0.68,1.59-1.76,2.08-3.33,1.49
				l-1.53-0.8c-0.62-0.25-1.27-0.59-1.92-0.93l-3.71-1.94c-0.95,1.83-1.82,3.62-2.62,5.45c-0.95,1.83-1.79,3.71-2.57,5.63
				c-0.28,0.68-0.47,1.33-0.6,1.86c-0.19,0.65-0.23,1.15-0.12,1.66c0.02,0.54,0.28,1.05,0.69,1.41c0.29,0.45,0.88,0.76,1.76,1.07
				c0.91,0.4,1.95,0.72,3.13,1.04c1.09,0.35,2.16,0.6,3.29,0.74c0.62,0.1,1.09,0.35,1.44,0.83
				C320.42,127.91,320.47,128.38,320.35,128.91z"/>
		</g>
		<g>
			<path d="M345.57,134.37l-0.8,0.98c-0.34,0.41-0.78,0.74-1.32,0.98c-0.54,0.24-1.2,0.31-1.91,0.24c-0.77-0.11-1.71-0.54-2.63-1.3
				l-10.15-7.64c-1.01,1.75-1.44,3.54-1.28,5.22c0.12,1.73,0.98,3.21,2.57,4.51c2.41,1.98,4.67,3.31,6.85,3.9
				c0.63,0.17,1.19,0.54,1.8,1.05c0.52,0.52,0.68,1.16,0.47,1.94c-0.18,0.54-0.47,0.99-0.85,1.45c-0.52,0.43-1.12,0.63-1.75,0.46
				c-3.61-0.73-7.26-2.78-10.91-6.29c-1.27-1.39-2.07-2.82-2.54-4.23c-0.52-1.46-0.66-2.86-0.52-4.29c0.05-1.42,0.38-2.87,1.08-4.36
				c0.57-1.43,1.41-2.88,2.49-4.4c0.86-1.36,2.01-2.56,3.47-3.6c1.36-1.03,2.84-1.79,4.46-2.19c1.56-0.44,3.16-0.5,4.89-0.2
				c1.64,0.31,3.27,1.05,4.81,2.31c2.16,1.77,3.44,3.77,3.95,6.08c0.46,2.27,0.21,4.56-0.79,6.83
				C346.3,133.16,345.87,134.01,345.57,134.37z M341.72,131.73c0.54-0.76,1.03-1.57,1.37-2.4c0.25-0.83,0.35-1.69,0.32-2.49
				c-0.18-0.83-0.45-1.66-0.95-2.41c-0.55-0.8-1.33-1.52-2.34-2.18c-0.91-0.57-1.74-0.91-2.51-1.03c-0.86-0.1-1.66-0.07-2.35,0.14
				c-0.78,0.22-1.5,0.57-2.07,1.05c-0.66,0.49-1.17,1.01-1.63,1.67L341.72,131.73z"/>
		</g>
		<g>
			<path d="M356.56,169.27c-0.69,0.17-1.23,0.23-1.68,0.06c-0.5-0.13-0.9-0.34-1.13-0.66c-0.36-0.39-0.49-0.79-0.4-1.35
				c0-0.57,0.24-1.15,0.77-1.78l10.37-14.49l-17.74,4.57c-1.28,0.27-2.19,0.02-2.78-0.79c-0.27-0.38-0.4-0.78-0.3-1.34
				c-0.02-0.48,0.22-1.06,0.64-1.61l12.79-17.95c0.38-0.6,0.92-0.99,1.62-1.16c0.6-0.19,1.25-0.08,1.85,0.3
				c0.51,0.37,0.95,0.87,1.27,1.54c0.23,0.66,0.03,1.29-0.47,1.97l-10.2,13.47l16.26-4.24c0.75-0.21,1.37-0.25,1.95-0.01
				c0.49,0.22,0.9,0.58,1.22,1.01c0.29,0.52,0.48,1.13,0.52,1.75c-0.01,0.66-0.25,1.24-0.58,1.81l-9.72,13.45l16.39-4.17
				c0.8-0.25,1.51-0.18,2.11,0.2c0.56,0.33,0.95,0.87,1.16,1.62c0.09,0.59,0.08,1.25-0.12,1.88c-0.35,0.66-0.99,1.12-1.98,1.34
				L356.56,169.27z"/>
		</g>
		<g>
			<path d="M198.89,341.27c0.74,2.35,0.68,4.66-0.16,7.01c-2.13,4.85-6.35,7.99-12.64,9.4l4.95,13.37c0.12,1.2-0.63,2-2.22,2.33
				c-1.45,0.34-2.29,0-2.68-1.04l-10.97-28.9l-1.75-4.73c-0.64-1.73,1.69-3.58,7.06-5.7C189.83,330.08,195.97,332.85,198.89,341.27z
				 M194.45,345.74c0.24-2.19-0.39-4.25-1.9-6.18c-3.53-3.68-8.01-3.92-13.42-0.66l5.25,14.18c0.78-0.03,1.97-0.34,3.47-0.89
				C191.73,350.61,193.94,348.42,194.45,345.74z"/>
		</g>
		<g>
			<path d="M216.91,362.42c0.07,0.74-0.16,1.22-0.6,1.54c-0.49,0.4-1.01,0.62-1.57,0.66c-0.54,0.1-1.06,0-1.47-0.17
				c-0.52-0.09-0.75-0.36-0.82-0.73l-3.61-20.77c-0.11-0.6,0.05-1.13,0.54-1.53c0.44-0.33,0.96-0.55,1.57-0.66
				c0.56-0.04,1.12-0.01,1.65,0.14c0.54,0.21,0.85,0.53,0.92,0.96L216.91,362.42z M212.23,332.53c0.15,0.85,0.11,1.67-0.06,2.45
				c-0.19,1.03-0.96,1.61-2.35,1.86c-0.97,0.17-1.71-0.13-2.37-1.01c-0.65-0.82-0.97-1.57-0.91-2.27c-0.11-0.6,0.01-1.31,0.38-2.07
				c0.38-0.69,0.87-1.09,1.47-1.2C210.27,329.95,211.53,330.72,212.23,332.53z"/>
		</g>
		<g>
			<path d="M242.54,357.18c0.01,0.49-0.22,0.99-0.58,1.37c-0.48,0.5-0.91,0.7-1.4,0.71l-16.04,0.35c-1.35,0.03-2.16-0.44-2.49-1.42
				c-0.45-1.04-0.05-2.27,1.15-3.78l11.59-15.01l-11.98,0.33c-0.55,0.01-1.05-0.16-1.49-0.52c-0.5-0.3-0.69-0.72-0.7-1.21
				c-0.02-0.8,0.15-1.42,0.51-1.86c0.3-0.38,0.97-0.58,2.08-0.6l13.89-0.31c0.68-0.01,1.29,0.09,1.85,0.33
				c0.5,0.23,0.87,0.6,1.13,0.96c0.26,0.42,0.39,0.85,0.4,1.28c-0.05,0.49-0.29,0.99-0.64,1.49l-12.56,16.01l12.96-0.29
				c0.8-0.02,1.42,0.15,1.79,0.51C242.33,355.96,242.53,356.5,242.54,357.18z"/>
		</g>
		<g>
			<path d="M265.29,361.1c-0.09,0.48-0.42,0.92-0.84,1.22c-0.57,0.4-1.03,0.5-1.51,0.41l-15.79-2.84c-1.33-0.24-2.03-0.86-2.16-1.89
				c-0.24-1.1,0.4-2.24,1.87-3.47l14.35-12.41l-11.81-2.06c-0.54-0.1-1-0.37-1.35-0.81c-0.43-0.39-0.53-0.85-0.45-1.33
				c0.14-0.79,0.43-1.36,0.87-1.72c0.37-0.31,1.07-0.37,2.15-0.17l13.67,2.46c0.67,0.12,1.25,0.35,1.75,0.69
				c0.44,0.33,0.74,0.76,0.91,1.16c0.17,0.47,0.21,0.91,0.13,1.34c-0.15,0.47-0.48,0.91-0.93,1.33l-15.49,13.2l12.76,2.3
				c0.79,0.14,1.36,0.43,1.66,0.86C265.33,359.86,265.41,360.44,265.29,361.1z"/>
		</g>
		<g>
			<path d="M288.21,371.33c-0.35,0.65-0.74,0.95-1.18,1.03c-0.57,0.09-1.07,0.01-1.56-0.26c-0.51-0.22-0.89-0.58-1.13-0.95
				c-0.38-0.36-0.43-0.72-0.28-1.06l0.29-0.68c-0.39-0.03-0.69-0.1-1.03-0.1c-0.39-0.03-0.72-0.04-1.11-0.07
				c-2.05-0.21-3.56-0.58-4.69-1.07c-2.58-0.84-4.48-2.18-5.81-4.08c-1.61-2.49-2.01-5.47-1.23-9.01c0.78-3.54,2.51-6.35,5.2-8.27
				c2.86-1.85,6.36-2.23,10.48-1.07c1.68,0.45,3.33,1.42,5.02,2.81c0.24,0.37,0.51,0.68,0.78,1c0.19,0.35,0.4,0.64,0.61,0.93
				c0.25-0.43,0.7-0.7,1.25-0.74c0.55-0.03,1.02,0.1,1.59,0.35c0.48,0.27,0.89,0.58,1.24,1c0.28,0.45,0.36,0.89,0.19,1.28
				L288.21,371.33z M290.05,354.34c-1.75-2.48-3.52-3.97-5.31-4.47c-2.57-0.56-4.59-0.36-6.08,0.61c-1.59,1.06-2.74,2.97-3.45,5.74
				c-0.45,1.68-0.33,3.27,0.3,4.61c0.53,1.43,1.8,2.51,3.72,3.33c1.02,0.43,2.14,0.78,3.36,0.9c1.14,0.15,2.32,0.19,3.58,0.06
				l4.5-10.38c-0.14,0.01-0.25-0.04-0.36-0.09C290.15,354.58,290.06,354.47,290.05,354.34z"/>
		</g>
		<g>
			<path d="M186.24,391.79c0.16-0.64,0.37-1.26,0.62-1.85s0.55-1.16,0.9-1.68s0.74-1,1.18-1.42c0.44-0.43,0.92-0.79,1.45-1.1
				c0.53-0.31,1.1-0.54,1.72-0.71c0.62-0.17,1.29-0.25,2-0.25c0.36,0,0.72,0.03,1.09,0.08s0.71,0.14,1.04,0.25
				c0.33,0.11,0.64,0.25,0.92,0.41c0.29,0.17,0.53,0.36,0.74,0.59s0.37,0.48,0.49,0.76c0.12,0.28,0.18,0.59,0.18,0.93
				c0,0.25-0.03,0.51-0.1,0.76c-0.12,0.47-0.28,0.89-0.5,1.26c-0.21,0.37-0.47,0.71-0.75,1.03c-0.29,0.32-0.61,0.62-0.96,0.91
				c-0.35,0.29-0.73,0.59-1.12,0.89c-0.11,0.08-0.23,0.17-0.36,0.25c-0.13,0.08-0.26,0.16-0.39,0.22c-0.13,0.07-0.26,0.12-0.4,0.16
				c-0.13,0.04-0.26,0.06-0.38,0.06c-0.16,0-0.29-0.02-0.39-0.05c-0.1-0.04-0.2-0.09-0.27-0.16c-0.08-0.07-0.14-0.15-0.2-0.25
				c-0.06-0.09-0.12-0.2-0.18-0.31h-0.01c-0.18,0.08-0.35,0.16-0.52,0.24c-0.16,0.08-0.33,0.16-0.49,0.22s-0.33,0.12-0.49,0.17
				c-0.17,0.04-0.34,0.07-0.53,0.07c-0.24,0-0.45-0.04-0.64-0.12c-0.19-0.08-0.35-0.18-0.48-0.32c-0.13-0.13-0.23-0.29-0.3-0.48
				s-0.11-0.39-0.11-0.6c0-0.29,0.07-0.58,0.21-0.89c0.14-0.3,0.31-0.61,0.53-0.91c0.21-0.3,0.45-0.59,0.72-0.88
				c0.26-0.29,0.52-0.55,0.78-0.8c0.11-0.11,0.25-0.24,0.44-0.39c0.19-0.15,0.39-0.3,0.62-0.44s0.45-0.26,0.69-0.36
				c0.23-0.1,0.45-0.15,0.66-0.15c0.09,0,0.16,0.02,0.22,0.05c0.06,0.04,0.12,0.08,0.17,0.13s0.09,0.11,0.13,0.18
				c0.04,0.07,0.07,0.13,0.1,0.19c0.05,0.1,0.1,0.18,0.16,0.26c0.06,0.08,0.11,0.15,0.17,0.22s0.1,0.15,0.14,0.23
				c0.04,0.08,0.05,0.17,0.05,0.27c0,0.16-0.03,0.31-0.1,0.47c-0.07,0.16-0.15,0.32-0.23,0.5c-0.06,0.11-0.12,0.21-0.16,0.3
				c-0.04,0.09-0.08,0.18-0.11,0.28c-0.03,0.1-0.07,0.22-0.11,0.35c-0.04,0.13-0.08,0.31-0.14,0.52c-0.02,0.08-0.04,0.17-0.06,0.27
				c-0.02,0.1-0.04,0.19-0.06,0.29c-0.02,0.1-0.03,0.18-0.04,0.27s-0.01,0.15-0.01,0.21v0.04c0.14-0.01,0.3-0.06,0.5-0.17
				c0.2-0.1,0.4-0.23,0.62-0.38c0.21-0.15,0.43-0.32,0.65-0.5c0.22-0.18,0.42-0.37,0.61-0.55c0.11-0.09,0.23-0.21,0.37-0.36
				c0.14-0.15,0.27-0.32,0.4-0.49s0.24-0.35,0.34-0.53s0.17-0.33,0.21-0.47c0.02-0.07,0.03-0.14,0.04-0.21
				c0.01-0.07,0.01-0.14,0.01-0.21c0-0.25-0.06-0.47-0.16-0.68c-0.11-0.2-0.26-0.38-0.44-0.54c-0.18-0.16-0.39-0.3-0.63-0.41
				c-0.24-0.12-0.48-0.21-0.74-0.29c-0.25-0.08-0.51-0.13-0.75-0.17c-0.25-0.04-0.48-0.05-0.69-0.05c-0.67,0-1.29,0.07-1.84,0.22
				s-1.06,0.35-1.51,0.62s-0.85,0.59-1.21,0.97c-0.35,0.38-0.67,0.79-0.95,1.25s-0.51,0.95-0.71,1.48s-0.37,1.08-0.51,1.65
				c-0.06,0.25-0.1,0.48-0.14,0.71c-0.03,0.23-0.05,0.45-0.05,0.66c0,0.41,0.06,0.78,0.17,1.12c0.11,0.34,0.28,0.63,0.51,0.88
				s0.52,0.43,0.87,0.57s0.77,0.21,1.25,0.21c0.44,0,0.88-0.05,1.32-0.17c0.44-0.11,0.88-0.26,1.3-0.46
				c0.43-0.2,0.84-0.43,1.25-0.71s0.79-0.57,1.16-0.89c0.05-0.04,0.1-0.1,0.12-0.18s0.06-0.16,0.1-0.23
				c0.04-0.08,0.08-0.14,0.14-0.2s0.13-0.09,0.23-0.09c0.08,0,0.16,0.02,0.22,0.05c0.07,0.03,0.12,0.08,0.17,0.14
				c0.05,0.06,0.08,0.13,0.11,0.2c0.02,0.08,0.04,0.15,0.04,0.23c0,0.09-0.02,0.2-0.07,0.33c-0.04,0.13-0.1,0.25-0.15,0.36
				c-0.35,0.38-0.76,0.73-1.25,1.07s-1,0.63-1.55,0.89c-0.54,0.26-1.1,0.46-1.66,0.61c-0.56,0.15-1.09,0.22-1.58,0.22
				c-0.64,0-1.21-0.1-1.68-0.3c-0.48-0.2-0.88-0.48-1.19-0.83c-0.32-0.35-0.56-0.77-0.71-1.25c-0.16-0.48-0.24-1-0.24-1.56
				C186.03,392.95,186.1,392.38,186.24,391.79z M190.68,392.05c0.18,0,0.38-0.03,0.59-0.09s0.41-0.13,0.59-0.23s0.35-0.2,0.48-0.31
				s0.22-0.22,0.25-0.32l0.07-0.26c0.04-0.16,0.09-0.32,0.14-0.48c0.05-0.17,0.1-0.33,0.15-0.48c0.03-0.09,0.06-0.2,0.1-0.32
				s0.08-0.23,0.11-0.35c0.04-0.12,0.07-0.23,0.1-0.34c0.03-0.11,0.04-0.21,0.04-0.29c0-0.04-0.01-0.07-0.03-0.1
				c-0.02-0.03-0.06-0.04-0.11-0.04c-0.1,0-0.24,0.05-0.43,0.17c-0.19,0.11-0.4,0.25-0.62,0.44s-0.46,0.39-0.69,0.62
				s-0.45,0.46-0.64,0.7s-0.35,0.47-0.48,0.71c-0.12,0.23-0.19,0.44-0.19,0.62c0,0.07,0.02,0.13,0.05,0.17
				c0.03,0.05,0.07,0.08,0.13,0.11s0.12,0.05,0.19,0.06C190.52,392.04,190.6,392.05,190.68,392.05z"/>
			<path d="M206.44,392.83c0,0.35-0.1,0.71-0.31,1.08c-0.21,0.37-0.54,0.72-0.99,1.04c-0.14,0.1-0.31,0.2-0.52,0.32
				c-0.2,0.12-0.42,0.23-0.66,0.35c-0.24,0.12-0.49,0.23-0.75,0.34c-0.26,0.11-0.53,0.21-0.79,0.29c-0.27,0.08-0.53,0.15-0.78,0.2
				c-0.25,0.05-0.49,0.08-0.72,0.08c-0.11,0-0.21-0.01-0.29-0.03c-0.08-0.02-0.16-0.05-0.22-0.09c-0.07-0.04-0.13-0.11-0.2-0.18
				s-0.13-0.18-0.21-0.29c-0.12,0.09-0.24,0.15-0.37,0.19c-0.13,0.04-0.26,0.06-0.39,0.06h-0.21c-0.04,0-0.08-0.01-0.11-0.04
				c-0.03-0.03-0.06-0.06-0.09-0.1s-0.05-0.08-0.06-0.13c-0.01-0.05-0.02-0.09-0.02-0.14c0-0.25,0.04-0.49,0.11-0.71
				c0.07-0.23,0.15-0.45,0.25-0.68c0.14-0.42,0.28-0.85,0.42-1.31c0.14-0.46,0.28-0.91,0.41-1.37s0.26-0.91,0.38-1.36
				c0.12-0.45,0.23-0.87,0.33-1.27l0.21-0.85c0-0.02,0-0.06-0.01-0.12s-0.01-0.14-0.02-0.22c-0.01-0.08-0.01-0.15-0.02-0.22
				l-0.01-0.09l0.04-0.12l-0.01,0.01c0.02-0.09,0.06-0.19,0.1-0.3s0.1-0.22,0.16-0.32s0.13-0.18,0.21-0.25
				c0.08-0.07,0.16-0.1,0.25-0.1c0.08,0,0.19,0.01,0.32,0.02c0.13,0.01,0.25,0.02,0.35,0.02c0.05,0,0.1,0,0.14-0.01
				c0.05,0,0.1-0.02,0.18-0.04s0.16-0.05,0.28-0.08c0.11-0.04,0.27-0.09,0.45-0.15c0.28-0.1,0.53-0.18,0.77-0.25
				c0.23-0.07,0.45-0.12,0.66-0.16c0.21-0.04,0.41-0.07,0.6-0.09s0.4-0.03,0.6-0.03c0.26,0,0.51,0.02,0.75,0.07
				c0.24,0.05,0.46,0.13,0.64,0.24c0.19,0.11,0.34,0.25,0.45,0.43c0.11,0.18,0.17,0.39,0.17,0.65c0,0.43-0.11,0.83-0.34,1.17
				s-0.55,0.67-0.97,0.97s-0.92,0.58-1.51,0.83c-0.59,0.26-1.24,0.51-1.97,0.76c0.58,0.09,1.07,0.19,1.49,0.31
				c0.42,0.12,0.76,0.26,1.04,0.42c0.27,0.16,0.48,0.34,0.61,0.55S206.44,392.57,206.44,392.83z M203.95,392.16
				c-0.05-0.01-0.14-0.03-0.27-0.05c-0.13-0.02-0.28-0.05-0.45-0.08c-0.17-0.03-0.36-0.06-0.56-0.09c-0.2-0.03-0.39-0.06-0.57-0.09
				c-0.18-0.03-0.35-0.06-0.49-0.09c-0.15-0.03-0.26-0.05-0.33-0.07c-0.19,0.6-0.35,1.18-0.49,1.72c-0.14,0.55-0.28,1.1-0.42,1.66
				l0.48,0.05c0.11,0.01,0.21,0.02,0.3,0.03c0.08,0.01,0.14,0.01,0.15,0.01c0.2-0.02,0.41-0.06,0.64-0.11
				c0.23-0.06,0.48-0.13,0.73-0.21c0.25-0.08,0.51-0.19,0.77-0.3c0.26-0.12,0.51-0.24,0.76-0.37c0.09-0.06,0.19-0.13,0.29-0.21
				c0.1-0.08,0.2-0.17,0.28-0.27c0.08-0.1,0.15-0.21,0.21-0.32s0.08-0.23,0.08-0.34c0-0.19-0.1-0.36-0.31-0.51
				C204.54,392.35,204.28,392.24,203.95,392.16z M201.63,390.46c0.27-0.09,0.56-0.19,0.86-0.31c0.3-0.12,0.61-0.25,0.93-0.39
				c0.32-0.14,0.64-0.29,0.97-0.45c0.33-0.16,0.66-0.32,0.99-0.48h-0.01c0.12-0.06,0.23-0.14,0.35-0.23
				c0.11-0.09,0.22-0.19,0.31-0.29c0.09-0.1,0.16-0.21,0.22-0.33c0.06-0.12,0.08-0.23,0.08-0.34c0-0.07-0.02-0.15-0.05-0.22
				s-0.09-0.14-0.16-0.2s-0.17-0.11-0.29-0.14s-0.27-0.05-0.44-0.05c-0.24,0-0.52,0.03-0.83,0.09c-0.31,0.06-0.61,0.14-0.89,0.23
				c-0.29,0.09-0.54,0.2-0.77,0.31s-0.37,0.22-0.45,0.32c-0.01,0.02-0.04,0.08-0.06,0.16c-0.03,0.08-0.06,0.17-0.09,0.28
				c-0.03,0.1-0.07,0.2-0.11,0.29c-0.04,0.09-0.07,0.16-0.11,0.21c-0.01,0.05-0.03,0.12-0.06,0.22c-0.03,0.1-0.06,0.22-0.11,0.35
				c-0.04,0.14-0.09,0.29-0.14,0.46C201.74,390.11,201.69,390.28,201.63,390.46z"/>
			<path d="M210.14,386.07c0.02-0.2,0.06-0.38,0.12-0.54c0.05-0.17,0.13-0.3,0.22-0.41c0.09-0.11,0.21-0.17,0.35-0.17
				c0.08,0,0.17,0.01,0.26,0.04c0.1,0.03,0.19,0.07,0.27,0.12c0.08,0.05,0.16,0.11,0.22,0.19s0.09,0.15,0.09,0.24
				c0,0.04-0.01,0.08-0.02,0.13c-0.01,0.05-0.03,0.1-0.04,0.15l-1.83,7.34c-0.07,0.29-0.13,0.57-0.18,0.84
				c-0.05,0.27-0.09,0.48-0.11,0.66v0.18c0,0.15-0.01,0.31-0.03,0.48c-0.02,0.17-0.06,0.33-0.11,0.48
				c-0.05,0.15-0.13,0.27-0.22,0.37c-0.1,0.1-0.22,0.15-0.37,0.15c-0.13,0-0.25-0.03-0.34-0.08c-0.1-0.06-0.18-0.13-0.24-0.22
				s-0.11-0.18-0.14-0.28c-0.03-0.1-0.04-0.19-0.04-0.28c0-0.08,0.01-0.17,0.02-0.29c0.01-0.11,0.03-0.23,0.05-0.36
				c0.02-0.12,0.05-0.25,0.07-0.37c0.02-0.12,0.05-0.23,0.07-0.33l1.89-7.5C210.09,386.45,210.11,386.27,210.14,386.07z"/>
			<path d="M215.24,395.8c0-0.14,0.02-0.31,0.05-0.51c0.03-0.2,0.05-0.44,0.05-0.74c-0.16,0.12-0.34,0.26-0.53,0.42
				s-0.4,0.31-0.61,0.46s-0.42,0.27-0.63,0.37c-0.21,0.1-0.4,0.15-0.58,0.15c-0.15,0-0.29-0.02-0.42-0.07
				c-0.13-0.04-0.24-0.1-0.34-0.18c-0.26-0.21-0.45-0.41-0.56-0.62s-0.17-0.44-0.17-0.72c0-0.12,0.01-0.25,0.03-0.38
				c0.02-0.13,0.05-0.28,0.1-0.45c0.19-0.77,0.5-1.49,0.96-2.14c0.45-0.66,1.01-1.22,1.68-1.68c0.26-0.18,0.52-0.3,0.78-0.35
				c0.26-0.05,0.52-0.08,0.77-0.08c0.11,0,0.24,0.01,0.38,0.02c0.14,0.01,0.26,0.03,0.38,0.04c0.11-0.02,0.2-0.04,0.27-0.05
				c0.07-0.01,0.15-0.01,0.22-0.01c0.15,0,0.27,0.02,0.37,0.06s0.18,0.09,0.23,0.16c0.06,0.07,0.1,0.14,0.13,0.23
				c0.03,0.09,0.04,0.17,0.04,0.27c0,0.13-0.02,0.25-0.06,0.36c-0.04,0.12-0.08,0.23-0.12,0.35l-0.97,3.86
				c-0.02,0.21-0.04,0.4-0.05,0.58s-0.04,0.34-0.09,0.49c-0.01,0.04-0.03,0.1-0.05,0.17c-0.02,0.07-0.06,0.13-0.11,0.19
				c-0.05,0.06-0.11,0.11-0.18,0.16s-0.17,0.07-0.29,0.07c-0.15,0-0.27-0.01-0.36-0.03c-0.09-0.02-0.16-0.05-0.21-0.08
				c-0.05-0.04-0.08-0.08-0.1-0.13C215.25,395.93,215.24,395.87,215.24,395.8z M212.81,393.59c-0.02,0.07-0.04,0.17-0.06,0.29
				c-0.02,0.13-0.03,0.25-0.03,0.38c0,0.13,0.02,0.25,0.06,0.36c0.04,0.11,0.12,0.16,0.26,0.16c0.21,0,0.4-0.05,0.58-0.14
				c0.18-0.09,0.35-0.2,0.5-0.33c0.21-0.17,0.42-0.36,0.64-0.58c0.22-0.21,0.42-0.44,0.62-0.67c0.19-0.23,0.36-0.47,0.51-0.72
				c0.15-0.25,0.26-0.49,0.33-0.74c0.04-0.14,0.07-0.31,0.1-0.49c0.03-0.19,0.04-0.35,0.04-0.5c0-0.06-0.01-0.13-0.04-0.19
				c-0.03-0.06-0.09-0.09-0.17-0.09c-0.24,0-0.48,0.05-0.72,0.14c-0.24,0.09-0.48,0.22-0.7,0.37s-0.44,0.34-0.64,0.55
				c-0.2,0.21-0.39,0.44-0.55,0.68c-0.17,0.24-0.31,0.49-0.43,0.75C212.97,393.09,212.87,393.34,212.81,393.59z"/>
			<path d="M218.98,393.25c0.09-0.38,0.23-0.77,0.41-1.18c0.18-0.41,0.4-0.81,0.66-1.19c0.26-0.38,0.55-0.74,0.88-1.06
				c0.33-0.33,0.69-0.59,1.08-0.79c0.13-0.07,0.27-0.12,0.42-0.15c0.15-0.03,0.31-0.05,0.46-0.05c0.16,0,0.31,0.01,0.45,0.04
				c0.14,0.03,0.26,0.08,0.36,0.15c0.1,0.07,0.18,0.16,0.24,0.26s0.09,0.24,0.09,0.4c0,0.12-0.02,0.24-0.05,0.36
				c-0.03,0.12-0.09,0.23-0.15,0.32c-0.07,0.09-0.15,0.17-0.26,0.23s-0.22,0.09-0.36,0.09c-0.11,0-0.21-0.02-0.3-0.06
				c-0.09-0.04-0.18-0.08-0.26-0.13c-0.04-0.03-0.09-0.05-0.12-0.08c-0.04-0.02-0.09-0.04-0.14-0.06c-0.2,0.09-0.38,0.2-0.55,0.35
				c-0.17,0.14-0.33,0.3-0.48,0.48s-0.29,0.36-0.41,0.56c-0.12,0.2-0.24,0.4-0.34,0.6c-0.1,0.2-0.19,0.4-0.26,0.59
				c-0.07,0.19-0.13,0.37-0.17,0.53c-0.03,0.12-0.06,0.25-0.09,0.4c-0.03,0.15-0.04,0.29-0.04,0.44c0,0.1,0.01,0.19,0.03,0.28
				c0.02,0.09,0.05,0.17,0.09,0.23s0.1,0.12,0.18,0.16s0.16,0.06,0.27,0.06c0.17,0,0.34-0.02,0.51-0.07
				c0.17-0.04,0.33-0.1,0.49-0.17s0.32-0.15,0.47-0.24c0.15-0.09,0.3-0.18,0.45-0.27c0.09-0.06,0.19-0.12,0.28-0.18
				c0.09-0.06,0.18-0.12,0.26-0.17s0.16-0.09,0.23-0.12c0.07-0.03,0.13-0.05,0.19-0.05c0.07,0,0.14,0.02,0.21,0.05
				c0.06,0.04,0.1,0.1,0.1,0.19c0,0.06-0.01,0.13-0.04,0.21c-0.07,0.19-0.16,0.36-0.28,0.51s-0.25,0.29-0.39,0.41
				c-0.14,0.12-0.3,0.23-0.46,0.32c-0.16,0.09-0.33,0.18-0.49,0.26c-0.3,0.16-0.61,0.28-0.92,0.36c-0.31,0.08-0.57,0.12-0.78,0.12
				c-0.07,0-0.15-0.01-0.24-0.02s-0.17-0.04-0.24-0.07c-0.4-0.17-0.68-0.4-0.86-0.69c-0.18-0.29-0.27-0.63-0.27-1.03
				c0-0.17,0.01-0.35,0.04-0.54C218.88,393.65,218.92,393.46,218.98,393.25z"/>
			<path d="M228.4,392.57c-0.1,0-0.21,0.02-0.33,0.07c-0.12,0.05-0.24,0.1-0.37,0.17s-0.24,0.13-0.35,0.2
				c-0.11,0.07-0.21,0.12-0.29,0.16l-0.67,2.64c-0.02,0.1-0.09,0.18-0.18,0.23s-0.19,0.08-0.27,0.08c-0.26,0-0.44-0.05-0.54-0.16
				c-0.1-0.11-0.14-0.24-0.14-0.41c0-0.07,0.01-0.15,0.02-0.22c0.01-0.08,0.03-0.15,0.05-0.24l0.03-0.12
				c0.03-0.13,0.07-0.3,0.12-0.5c0.05-0.2,0.11-0.41,0.16-0.63c0.06-0.22,0.12-0.45,0.18-0.67c0.06-0.23,0.12-0.44,0.17-0.63
				c0.05-0.19,0.13-0.46,0.24-0.83c0.1-0.37,0.22-0.78,0.35-1.23c0.13-0.46,0.26-0.93,0.4-1.42c0.14-0.5,0.27-0.97,0.4-1.42
				c0.12-0.45,0.24-0.85,0.33-1.2c0.1-0.35,0.17-0.61,0.21-0.77c0.04-0.07,0.11-0.12,0.21-0.17c0.09-0.04,0.2-0.07,0.33-0.07
				c0.09,0,0.18,0.01,0.27,0.03c0.09,0.02,0.18,0.06,0.25,0.1c0.08,0.05,0.14,0.1,0.19,0.18c0.05,0.07,0.07,0.15,0.07,0.25
				c0,0.06-0.01,0.14-0.04,0.23c-0.29,0.85-0.58,1.73-0.87,2.64c-0.29,0.91-0.55,1.83-0.78,2.77c0.06-0.04,0.18-0.12,0.35-0.24
				s0.36-0.26,0.57-0.42s0.42-0.33,0.63-0.5s0.39-0.33,0.53-0.48c0.1-0.1,0.2-0.2,0.3-0.3c0.1-0.11,0.2-0.21,0.29-0.3
				c0.09-0.09,0.17-0.18,0.24-0.26c0.07-0.08,0.12-0.14,0.16-0.18c0.09-0.11,0.19-0.2,0.3-0.27c0.11-0.07,0.22-0.11,0.33-0.11
				c0.11,0,0.21,0.02,0.29,0.05s0.16,0.08,0.23,0.13c0.06,0.05,0.11,0.11,0.15,0.18c0.03,0.07,0.05,0.13,0.05,0.19
				c0,0.07-0.02,0.15-0.05,0.23s-0.07,0.16-0.12,0.24c-0.05,0.08-0.1,0.15-0.15,0.22c-0.05,0.07-0.1,0.12-0.14,0.15
				c-0.13,0.12-0.28,0.25-0.45,0.38c-0.17,0.14-0.34,0.28-0.52,0.42c-0.18,0.14-0.37,0.29-0.55,0.43c-0.19,0.14-0.37,0.28-0.55,0.41
				c0.31,0.17,0.56,0.4,0.76,0.68c0.2,0.29,0.35,0.6,0.47,0.95c0.12,0.35,0.2,0.72,0.24,1.1s0.07,0.76,0.07,1.13
				c0,0.03,0,0.07-0.01,0.14c0,0.06-0.01,0.12-0.03,0.17c-0.02,0.09-0.05,0.17-0.09,0.24c-0.03,0.07-0.08,0.13-0.14,0.19
				c-0.06,0.05-0.12,0.09-0.21,0.12c-0.08,0.03-0.18,0.04-0.3,0.04c-0.11,0-0.21-0.02-0.29-0.06c-0.08-0.04-0.14-0.09-0.19-0.15
				c-0.05-0.06-0.09-0.13-0.11-0.21c-0.02-0.08-0.04-0.16-0.04-0.23c0-0.24-0.01-0.5-0.02-0.76c-0.01-0.26-0.04-0.51-0.09-0.76
				s-0.1-0.47-0.18-0.69c-0.08-0.22-0.17-0.4-0.3-0.56c-0.09-0.11-0.17-0.2-0.25-0.26s-0.17-0.1-0.27-0.1H228.4z"/>
			<path d="M240.72,390.92c-0.06,0.02-0.16,0.05-0.31,0.1s-0.32,0.11-0.51,0.17c-0.19,0.07-0.39,0.14-0.6,0.21
				c-0.21,0.08-0.41,0.15-0.6,0.21c-0.19,0.07-0.36,0.12-0.5,0.17s-0.24,0.08-0.29,0.09c-0.03,0-0.08,0.02-0.13,0.04
				s-0.11,0.05-0.17,0.07s-0.11,0.05-0.16,0.07c-0.05,0.02-0.09,0.03-0.12,0.03c-0.1,0-0.19-0.02-0.27-0.06
				c-0.08-0.04-0.15-0.1-0.21-0.16s-0.1-0.15-0.13-0.24s-0.04-0.19-0.04-0.29c0-0.2,0.06-0.36,0.17-0.48s0.25-0.21,0.4-0.27
				c0.15-0.06,0.31-0.1,0.48-0.12c0.17-0.02,0.3-0.04,0.41-0.05c0.01,0,0.04-0.01,0.09-0.02c0.04-0.02,0.09-0.03,0.15-0.05
				s0.11-0.04,0.16-0.05c0.05-0.01,0.1-0.02,0.13-0.02c0.09-0.04,0.22-0.1,0.41-0.18s0.39-0.16,0.61-0.24
				c0.22-0.08,0.44-0.15,0.66-0.21c0.22-0.06,0.4-0.09,0.56-0.09c0.18,0,0.33,0.03,0.47,0.08c0.14,0.06,0.25,0.13,0.35,0.23
				c0.1,0.1,0.17,0.22,0.22,0.35c0.05,0.13,0.08,0.28,0.08,0.44c0,0.07,0,0.14-0.01,0.21c-0.01,0.07-0.03,0.16-0.05,0.26
				c-0.15,0.55-0.37,1.06-0.67,1.53c-0.3,0.47-0.65,0.9-1.06,1.28c-0.41,0.38-0.85,0.72-1.34,1.01s-0.99,0.54-1.51,0.72l0.01-0.01
				c-0.08,0.03-0.18,0.07-0.3,0.11c-0.12,0.04-0.24,0.07-0.37,0.1c-0.13,0.03-0.26,0.06-0.38,0.08c-0.12,0.02-0.23,0.03-0.33,0.03
				c-0.19,0-0.35-0.01-0.48-0.02c-0.13-0.01-0.24-0.03-0.33-0.04c-0.09-0.02-0.17-0.04-0.23-0.06s-0.12-0.05-0.16-0.07
				c-0.28-0.13-0.53-0.28-0.77-0.46c-0.23-0.18-0.43-0.38-0.6-0.62s-0.3-0.49-0.39-0.78c-0.09-0.29-0.14-0.6-0.14-0.93
				c0-0.36,0.06-0.74,0.18-1.13c0.12-0.39,0.28-0.79,0.48-1.19s0.45-0.8,0.72-1.19s0.58-0.77,0.9-1.12c0.32-0.36,0.66-0.69,1.01-1
				s0.7-0.58,1.04-0.81c0.21-0.14,0.44-0.29,0.68-0.43c0.24-0.15,0.49-0.28,0.74-0.4s0.51-0.21,0.77-0.29
				c0.26-0.08,0.52-0.11,0.77-0.11c0.2,0,0.4,0.03,0.59,0.09s0.37,0.14,0.53,0.25c0.16,0.1,0.28,0.23,0.38,0.38
				c0.1,0.15,0.15,0.32,0.15,0.51c0,0.08-0.01,0.17-0.04,0.27c-0.01,0.04-0.03,0.11-0.06,0.21s-0.07,0.17-0.11,0.23l0.01-0.01
				c-0.02,0.06-0.05,0.1-0.1,0.11s-0.09,0.01-0.14,0.01c-0.15,0-0.27-0.04-0.37-0.11s-0.2-0.15-0.29-0.24
				c-0.09-0.08-0.17-0.16-0.26-0.24c-0.09-0.07-0.19-0.11-0.3-0.11h-0.2c-0.38,0.08-0.79,0.24-1.22,0.46
				c-0.43,0.23-0.86,0.5-1.29,0.83c-0.43,0.32-0.84,0.69-1.23,1.09s-0.73,0.82-1.03,1.24c-0.3,0.43-0.54,0.87-0.71,1.31
				c-0.18,0.44-0.27,0.87-0.27,1.27c0,0.33,0.08,0.62,0.23,0.85c0.15,0.24,0.37,0.47,0.66,0.7h-0.01c0.15,0.1,0.32,0.18,0.49,0.25
				s0.35,0.1,0.52,0.1c0.18,0,0.37-0.03,0.57-0.1s0.42-0.15,0.62-0.26c0.21-0.1,0.41-0.21,0.61-0.34c0.2-0.12,0.38-0.23,0.54-0.34
				c0.52-0.34,0.95-0.74,1.31-1.2s0.65-0.94,0.88-1.44c0.01-0.02,0.02-0.05,0.03-0.07c0.01-0.02,0.02-0.04,0.02-0.06
				C240.71,390.95,240.72,390.94,240.72,390.92z"/>
			<path d="M242.85,393.31c0.07-0.3,0.19-0.61,0.34-0.95c0.15-0.33,0.35-0.67,0.6-1.01s0.55-0.68,0.9-1s0.75-0.63,1.21-0.92
				c0.07-0.04,0.19-0.09,0.34-0.14c0.15-0.05,0.31-0.08,0.47-0.09c0.19-0.21,0.45-0.31,0.77-0.31c0.38,0,0.7,0.1,0.96,0.29
				c0.26,0.19,0.48,0.46,0.65,0.79c0.05,0.11,0.1,0.21,0.15,0.31c0.05,0.1,0.08,0.21,0.12,0.33c0.03,0.12,0.06,0.24,0.08,0.37
				s0.03,0.28,0.03,0.45c0,0.39-0.06,0.78-0.18,1.18s-0.3,0.79-0.52,1.17s-0.5,0.75-0.82,1.09c-0.32,0.35-0.67,0.66-1.07,0.94
				c-0.26,0.19-0.56,0.34-0.88,0.44c-0.32,0.1-0.68,0.16-1.07,0.16c-0.38,0-0.7-0.05-0.98-0.15c-0.28-0.1-0.51-0.24-0.69-0.43
				c-0.18-0.19-0.32-0.41-0.41-0.67c-0.09-0.26-0.14-0.55-0.14-0.86C242.72,393.99,242.76,393.66,242.85,393.31z M244.06,393.4
				c-0.03,0.11-0.05,0.22-0.06,0.32c-0.01,0.1-0.02,0.2-0.02,0.29c0,0.16,0.02,0.31,0.06,0.45c0.04,0.14,0.11,0.26,0.2,0.36
				c0.09,0.1,0.21,0.18,0.35,0.23c0.14,0.06,0.31,0.08,0.51,0.08c0.37,0,0.72-0.09,1.04-0.28c0.32-0.19,0.6-0.42,0.85-0.71
				s0.46-0.59,0.63-0.91c0.17-0.32,0.29-0.62,0.36-0.9c0.04-0.17,0.08-0.33,0.11-0.48c0.03-0.15,0.05-0.29,0.05-0.42
				s-0.02-0.25-0.07-0.36c-0.05-0.11-0.11-0.23-0.18-0.37c-0.04-0.08-0.09-0.17-0.13-0.26c-0.04-0.09-0.08-0.18-0.12-0.27
				c-0.04,0.07-0.08,0.13-0.12,0.18c-0.04,0.05-0.11,0.1-0.2,0.14c-0.09,0.04-0.21,0.08-0.36,0.11s-0.35,0.06-0.59,0.09
				c-0.16,0.05-0.32,0.14-0.49,0.25s-0.33,0.24-0.49,0.4c-0.16,0.15-0.31,0.32-0.45,0.49c-0.14,0.18-0.27,0.35-0.39,0.54
				c-0.11,0.18-0.21,0.36-0.3,0.54C244.16,393.1,244.1,393.26,244.06,393.4z"/>
			<path d="M250.78,393.31c0.07-0.3,0.19-0.61,0.34-0.95c0.15-0.33,0.35-0.67,0.6-1.01s0.55-0.68,0.9-1s0.75-0.63,1.21-0.92
				c0.07-0.04,0.19-0.09,0.34-0.14c0.15-0.05,0.31-0.08,0.47-0.09c0.19-0.21,0.45-0.31,0.77-0.31c0.38,0,0.7,0.1,0.96,0.29
				c0.26,0.19,0.48,0.46,0.65,0.79c0.05,0.11,0.1,0.21,0.15,0.31c0.05,0.1,0.08,0.21,0.12,0.33c0.03,0.12,0.06,0.24,0.08,0.37
				s0.03,0.28,0.03,0.45c0,0.39-0.06,0.78-0.18,1.18s-0.3,0.79-0.52,1.17s-0.5,0.75-0.82,1.09c-0.32,0.35-0.67,0.66-1.07,0.94
				c-0.26,0.19-0.56,0.34-0.88,0.44c-0.32,0.1-0.68,0.16-1.07,0.16c-0.38,0-0.7-0.05-0.98-0.15c-0.28-0.1-0.51-0.24-0.69-0.43
				c-0.18-0.19-0.32-0.41-0.41-0.67c-0.09-0.26-0.14-0.55-0.14-0.86C250.65,393.99,250.69,393.66,250.78,393.31z M252,393.4
				c-0.03,0.11-0.05,0.22-0.06,0.32c-0.01,0.1-0.02,0.2-0.02,0.29c0,0.16,0.02,0.31,0.06,0.45c0.04,0.14,0.11,0.26,0.2,0.36
				c0.09,0.1,0.21,0.18,0.35,0.23c0.14,0.06,0.31,0.08,0.51,0.08c0.37,0,0.72-0.09,1.04-0.28c0.32-0.19,0.6-0.42,0.85-0.71
				s0.46-0.59,0.63-0.91c0.17-0.32,0.29-0.62,0.36-0.9c0.04-0.17,0.08-0.33,0.11-0.48c0.03-0.15,0.05-0.29,0.05-0.42
				s-0.02-0.25-0.07-0.36c-0.05-0.11-0.11-0.23-0.18-0.37c-0.04-0.08-0.09-0.17-0.13-0.26c-0.04-0.09-0.08-0.18-0.12-0.27
				c-0.04,0.07-0.08,0.13-0.12,0.18c-0.04,0.05-0.11,0.1-0.2,0.14c-0.09,0.04-0.21,0.08-0.36,0.11s-0.35,0.06-0.59,0.09
				c-0.16,0.05-0.32,0.14-0.49,0.25s-0.33,0.24-0.49,0.4c-0.16,0.15-0.31,0.32-0.45,0.49c-0.14,0.18-0.27,0.35-0.39,0.54
				c-0.11,0.18-0.21,0.36-0.3,0.54C252.09,393.1,252.03,393.26,252,393.4z"/>
			<path d="M258.81,394.82c0.04,0,0.07,0.01,0.11,0.02c0.03,0.01,0.07,0.02,0.11,0.03c0.04,0.01,0.08,0.02,0.13,0.03
				s0.11,0.01,0.19,0.01c0.23,0,0.48-0.02,0.77-0.07s0.55-0.11,0.79-0.19s0.46-0.17,0.64-0.27c0.18-0.1,0.28-0.2,0.3-0.31
				c0.01-0.06,0.02-0.11,0.02-0.15c0-0.08-0.04-0.16-0.12-0.24c-0.08-0.08-0.18-0.15-0.3-0.22s-0.25-0.13-0.4-0.19
				s-0.27-0.11-0.4-0.16l-0.25-0.1c-0.13-0.05-0.25-0.11-0.37-0.18c-0.12-0.07-0.24-0.15-0.34-0.25c-0.11-0.09-0.2-0.2-0.28-0.33
				c-0.08-0.12-0.14-0.27-0.18-0.43c-0.02-0.07-0.04-0.14-0.05-0.21c-0.01-0.07-0.02-0.14-0.02-0.22c0-0.13,0.04-0.27,0.13-0.44
				c0.08-0.16,0.2-0.33,0.34-0.49c0.14-0.16,0.31-0.31,0.49-0.46c0.18-0.15,0.37-0.27,0.57-0.37c0.15-0.1,0.29-0.2,0.42-0.28
				s0.27-0.15,0.41-0.21c0.14-0.06,0.28-0.1,0.42-0.14s0.3-0.05,0.46-0.05c0.15,0,0.31,0.01,0.48,0.02s0.33,0.05,0.47,0.1
				s0.26,0.13,0.35,0.24c0.1,0.1,0.14,0.25,0.14,0.42c0,0.05-0.01,0.12-0.02,0.21s-0.04,0.18-0.07,0.26s-0.08,0.16-0.12,0.23
				s-0.11,0.1-0.18,0.1c-0.11,0-0.21-0.02-0.28-0.07s-0.14-0.09-0.2-0.14c-0.06-0.05-0.12-0.1-0.18-0.14
				c-0.06-0.04-0.14-0.07-0.23-0.07c-0.11,0-0.24,0.02-0.39,0.06c-0.15,0.04-0.3,0.1-0.46,0.17c-0.16,0.07-0.31,0.15-0.46,0.25
				c-0.15,0.09-0.28,0.19-0.4,0.29s-0.22,0.19-0.29,0.29c-0.07,0.1-0.11,0.18-0.11,0.26c0,0.08,0.03,0.15,0.08,0.21
				c0.05,0.05,0.12,0.1,0.21,0.14c0.11,0.06,0.23,0.12,0.37,0.18c0.14,0.06,0.28,0.12,0.42,0.18s0.28,0.12,0.41,0.18
				c0.13,0.06,0.25,0.11,0.35,0.16c0.13,0.07,0.25,0.14,0.36,0.2c0.1,0.07,0.19,0.14,0.27,0.22s0.13,0.17,0.17,0.26
				s0.06,0.21,0.06,0.34c0,0.06,0,0.13-0.01,0.19s-0.02,0.14-0.04,0.22c-0.01,0.07-0.04,0.16-0.08,0.26
				c-0.04,0.1-0.08,0.19-0.12,0.29c-0.04,0.09-0.08,0.18-0.13,0.26c-0.04,0.08-0.08,0.13-0.11,0.15c-0.19,0.18-0.42,0.34-0.67,0.49
				c-0.26,0.15-0.53,0.29-0.81,0.4c-0.28,0.11-0.56,0.21-0.84,0.27s-0.54,0.1-0.77,0.1c-0.12,0-0.25-0.02-0.39-0.07
				c-0.14-0.05-0.27-0.11-0.39-0.18c-0.12-0.08-0.22-0.16-0.3-0.26c-0.08-0.1-0.12-0.2-0.12-0.29c0-0.05,0.01-0.1,0.04-0.17
				c0.03-0.06,0.07-0.12,0.11-0.17c0.04-0.05,0.09-0.1,0.14-0.13C258.72,394.83,258.77,394.82,258.81,394.82z"/>
			<path d="M264.74,393.29c0-0.21,0.06-0.39,0.17-0.53s0.26-0.24,0.45-0.29c0.05-0.11,0.14-0.25,0.25-0.44
				c0.11-0.18,0.25-0.38,0.42-0.6s0.35-0.43,0.57-0.65c0.21-0.22,0.45-0.42,0.7-0.59c0.26-0.18,0.53-0.32,0.83-0.44
				c0.3-0.11,0.61-0.17,0.94-0.17c0.28,0,0.53,0.03,0.74,0.1s0.38,0.16,0.52,0.29s0.24,0.27,0.31,0.44c0.07,0.17,0.1,0.35,0.1,0.54
				c0,0.17-0.02,0.33-0.07,0.48c-0.07,0.27-0.2,0.51-0.38,0.72s-0.4,0.38-0.66,0.54c-0.25,0.15-0.52,0.28-0.82,0.38
				s-0.59,0.19-0.89,0.26c-0.3,0.07-0.58,0.12-0.85,0.16c-0.27,0.04-0.51,0.06-0.71,0.08c-0.04,0.09-0.08,0.2-0.11,0.33
				c-0.03,0.13-0.05,0.27-0.05,0.39c0,0.28,0.11,0.5,0.34,0.66s0.53,0.23,0.93,0.23c0.23,0,0.45-0.03,0.66-0.08
				c0.21-0.05,0.41-0.12,0.6-0.2c0.19-0.08,0.37-0.17,0.53-0.26c0.17-0.09,0.32-0.19,0.45-0.28c0.18-0.12,0.34-0.22,0.5-0.3
				c0.16-0.08,0.3-0.12,0.42-0.12s0.2,0.03,0.23,0.09c0.03,0.06,0.05,0.13,0.05,0.19c0,0.04,0,0.08,0,0.11
				c0,0.04-0.01,0.07-0.01,0.09c-0.02,0.13-0.07,0.25-0.15,0.38c-0.07,0.13-0.17,0.24-0.28,0.33c-0.51,0.4-1.03,0.69-1.56,0.86
				c-0.53,0.17-1.1,0.26-1.71,0.26c-0.12,0-0.26-0.01-0.41-0.02c-0.16-0.02-0.32-0.04-0.49-0.09c-0.17-0.04-0.34-0.11-0.51-0.19
				c-0.17-0.08-0.31-0.19-0.44-0.33c-0.13-0.14-0.23-0.3-0.32-0.5c-0.08-0.2-0.12-0.44-0.12-0.73c0-0.23,0.03-0.49,0.1-0.77
				c-0.06-0.01-0.12-0.04-0.18-0.1C264.77,393.48,264.74,393.39,264.74,393.29z M269.33,391.26c0.01-0.02,0.01-0.05,0.01-0.07
				s0-0.04,0-0.07c0-0.13-0.05-0.23-0.15-0.3c-0.1-0.07-0.21-0.1-0.35-0.1c-0.21,0-0.43,0.06-0.63,0.17s-0.4,0.25-0.59,0.42
				c-0.18,0.17-0.35,0.35-0.49,0.54c-0.14,0.19-0.25,0.37-0.33,0.52c0.35-0.03,0.67-0.08,0.97-0.14c0.29-0.07,0.55-0.15,0.77-0.25
				c0.22-0.1,0.39-0.21,0.53-0.34C269.2,391.53,269.29,391.4,269.33,391.26z"/>
		</g>
	</g>
</g>
</svg>
